<?xml version="1.0" encoding="UTF-8"?>
<svg id="_图层_1" data-name="图层 1" xmlns="http://www.w3.org/2000/svg" viewBox="0 0 240.53 100">
  <defs>
    <style>
      .cls-1 {
        fill: #fff59d;
        stroke: #ffeb3b;
      }

      .cls-1, .cls-2, .cls-3, .cls-4 {
        stroke-miterlimit: 10;
      }

      .cls-5 {
        font-family: SourceHanSansSC-Normal-GBpc-EUC-H, 'Source Han Sans SC';
      }

      .cls-5, .cls-6 {
        font-size: 12px;
      }

      .cls-2 {
        fill: none;
        stroke: #000;
      }

      .cls-3 {
        fill: #c8e6c9;
        stroke: #4caf50;
      }

      .cls-7 {
        letter-spacing: -.01em;
      }

      .cls-8 {
        letter-spacing: 0em;
      }

      .cls-6, .cls-9 {
        font-family: SourceHanSansSC-Bold-GBpc-EUC-H, 'Source Han Sans SC';
        font-weight: 700;
      }

      .cls-10 {
        font-family: SourceHanSansSC-Regular-GBpc-EUC-H, 'Source Han Sans SC';
      }

      .cls-10, .cls-9 {
        font-size: 6px;
      }

      .cls-4 {
        fill: #ef9a9a;
        stroke: #f44336;
      }

      .cls-11 {
        letter-spacing: -.03em;
      }

      .cls-12 {
        letter-spacing: -.07em;
      }

      .cls-13 {
        letter-spacing: -.02em;
      }
    </style>
  </defs>
  <g>
    <g>
      <line class="cls-2" x1="37.23" y1="35" x2="37.23" y2="100"/>
      <line class="cls-2" x1="62.23" y1="35" x2="62.23" y2="100"/>
      <line class="cls-2" x1="87.23" y1="35" x2="87.23" y2="100"/>
      <line class="cls-2" x1="112.23" y1="35" x2="112.23" y2="100"/>
      <line class="cls-2" x1="37.23" y1="35" x2="37.23" y2="100"/>
      <line class="cls-2" x1="62.23" y1="35" x2="62.23" y2="100"/>
      <line class="cls-2" x1="87.23" y1="35" x2="87.23" y2="100"/>
      <line class="cls-2" x1="112.23" y1="35" x2="112.23" y2="100"/>
      <line class="cls-2" x1="137.23" y1="35" x2="137.23" y2="100"/>
      <line class="cls-2" x1="162.23" y1="35" x2="162.23" y2="100"/>
      <line class="cls-2" x1="187.23" y1="35" x2="187.23" y2="100"/>
      <line class="cls-2" x1="212.23" y1="35" x2="212.23" y2="100"/>
      <line class="cls-2" x1="237.23" y1="35" x2="237.23" y2="100"/>
    </g>
    <g>
      <text class="cls-5" transform="translate(33.94 30.56)"><tspan x="0" y="0">1</tspan></text>
      <text class="cls-5" transform="translate(58.94 30.56)"><tspan x="0" y="0">2</tspan></text>
      <text class="cls-5" transform="translate(83.94 30.56)"><tspan x="0" y="0">3</tspan></text>
      <text class="cls-5" transform="translate(108.94 30.56)"><tspan x="0" y="0">4</tspan></text>
      <text class="cls-5" transform="translate(33.94 30.56)"><tspan x="0" y="0">1</tspan></text>
      <text class="cls-5" transform="translate(58.94 30.56)"><tspan x="0" y="0">2</tspan></text>
      <text class="cls-5" transform="translate(83.94 30.56)"><tspan x="0" y="0">3</tspan></text>
      <text class="cls-5" transform="translate(108.94 30.56)"><tspan x="0" y="0">4</tspan></text>
      <text class="cls-5" transform="translate(133.94 30.56)"><tspan x="0" y="0">5</tspan></text>
      <text class="cls-5" transform="translate(158.94 30.56)"><tspan x="0" y="0">6</tspan></text>
      <text class="cls-5" transform="translate(183.94 30.56)"><tspan x="0" y="0">7</tspan></text>
      <text class="cls-5" transform="translate(208.94 30.56)"><tspan x="0" y="0">8</tspan></text>
      <text class="cls-5" transform="translate(233.94 30.56)"><tspan x="0" y="0">9</tspan></text>
    </g>
  </g>
  <g>
    <g>
      <rect class="cls-3" x="37.23" y="40" width="75" height="15"/>
      <text class="cls-9" transform="translate(72.89 49.66)"><tspan x="0" y="0">1</tspan></text>
    </g>
    <g>
      <rect class="cls-1" x="112.23" y="40" width="50" height="15"/>
      <text class="cls-9" transform="translate(135.46 49.66)"><tspan x="0" y="0">0</tspan></text>
    </g>
    <g>
      <rect class="cls-4" x="162.23" y="40" width="75" height="15"/>
      <text class="cls-9" transform="translate(196.87 49.66)"><tspan x="0" y="0">-1</tspan></text>
    </g>
    <text class="cls-10" transform="translate(0 48.71)"><tspan x="0" y="0">Com</tspan><tspan class="cls-13" x="13.02" y="0">p</tspan><tspan x="16.64" y="0">a</tspan><tspan class="cls-7" x="20.02" y="0">r</tspan><tspan class="cls-11" x="22.28" y="0">e</tspan><tspan class="cls-12" x="25.45" y="0">T</tspan><tspan class="cls-8" x="28.6" y="0">o</tspan></text>
  </g>
  <g>
    <g>
      <rect class="cls-3" x="37.23" y="60" width="125" height="15"/>
      <text class="cls-9" transform="translate(96.17 69.66)"><tspan x="0" y="0">&gt;=</tspan></text>
    </g>
    <g>
      <rect class="cls-4" x="162.23" y="60" width="75" height="15"/>
      <text class="cls-9" transform="translate(197.95 69.66)"><tspan x="0" y="0">&lt;</tspan></text>
    </g>
    <text class="cls-10" transform="translate(8.8 68.71)"><tspan x="0" y="0">&lt; and &gt;=</tspan></text>
  </g>
  <g>
    <g>
      <rect class="cls-3" x="37.23" y="80" width="75" height="15"/>
      <text class="cls-9" transform="translate(72.95 89.66)"><tspan x="0" y="0">&gt;</tspan></text>
    </g>
    <g>
      <rect class="cls-4" x="112.23" y="79.95" width="125" height="15"/>
      <text class="cls-9" transform="translate(171.17 89.71)"><tspan x="0" y="0">&lt;=</tspan></text>
    </g>
    <text class="cls-10" transform="translate(8.8 88.71)"><tspan x="0" y="0">&gt; and &lt;=</tspan></text>
  </g>
  <text class="cls-6" transform="translate(32.23 10.56)"><tspan x="0" y="0">Min = 4, Max = 6</tspan></text>
</svg>